<svg id="Layer_1" data-name="Layer 1" xmlns="http://www.w3.org/2000/svg" viewBox="0 0 100 100"><defs><style>.cls-1{fill:#504440;}.cls-2{fill:#fff;}.cls-3{fill:#fee140;}</style></defs><circle class="cls-1" cx="49.93" cy="50" r="50"/><g id="uuid-da47f5a9-5d14-469e-8f04-3e978ab5f0be"><path class="cls-2" d="M57.07,21.66l-1.4-.61-2.85,6.46a14.37,14.37,0,0,0-2.25-1.46c-.24-.14-.44-.24-.59-.35l-.37-.24-.39.19a18.36,18.36,0,0,0-2.76,1.75l-3.64-6.31-1.33.77,3.8,6.56a8.47,8.47,0,0,0-2.71,6.46h1.53c0-2.44.67-5.06,5.43-7.66a2.63,2.63,0,0,1,.26.16c1.78,1,5.08,2.92,5.08,7.65H56.4A9.08,9.08,0,0,0,54,28.62l3.08-7Z"/><path class="cls-2" d="M84.86,43.14c-.09-4-2.7-8.51-7.59-9.55-5.06-1.13-10.62-.48-16.53,2a49.09,49.09,0,0,0-11.08,6.56c-9.6-7.41-19-10.38-27.09-8.55a9.56,9.56,0,0,0-7.79,9.2c-.15,4.56,2.77,8.27,7.44,9.46a21.89,21.89,0,0,0,5.67.75,28,28,0,0,0,12.34-3.19c-2.24,3-3.44,7-2.53,13.22C39.25,73.56,46.61,82.9,49.29,84.4l.37.22L50,84.4c2.45-1.41,11.56-14,11.39-23.85-.09-5.08-1.2-8.36-3.19-11A28.09,28.09,0,0,0,71.37,53a25,25,0,0,0,6.22-.79c5.46-1.42,7.33-5.64,7.26-9.11ZM22.59,50.75c-4.8-1.23-6.39-4.91-6.28-7.94a8.07,8.07,0,0,1,6.54-7.74h0a20.38,20.38,0,0,1,4.49-.48c6.44,0,13.55,2.85,20.86,8.37-12.67,9.59-20.67,9-25.63,7.78Zm37,6.28a28.08,28.08,0,0,1,.28,3.52,13.57,13.57,0,0,1,0,1.41l-16.57-.13,0,1.53,16.4.13a27.74,27.74,0,0,1-1.16,4.56l-14.33,0v1.53l13.74-.05c-2.49,6.22-6.67,11.8-8.31,13.22-2.27-1.79-9-10-10.43-20C37.59,52,42.54,48.73,48.82,44.67l.78-.52c5.13,3.6,8.42,6.06,9.69,11.36l-17.47,0V57l17.8,0Zm17.6-6.28c-8.44,2.16-17-.4-26.09-7.83,4.75-3.58,15.33-10.21,25.8-7.85a8.39,8.39,0,0,1,6.39,8.09c.07,3.75-2.2,6.58-6.11,7.59Z"/><path class="cls-3" d="M54.87,42.9c3.71-2.14,11.36-5.63,16.84-5.54,5.67.1,8.44,1.94,8.79,5.34.45,4.6-5.48,5.87-6.94,6.06-6.63.85-14.74-2.34-18.69-5.87Z"/><path class="cls-3" d="M44.68,42.9c-3.53,2.68-11.53,5.89-17,5.75-5.67-.13-8.42-2-8.74-5.4-.44-4.61,5.52-5.83,7-6C32.56,36.42,40.78,39.32,44.68,42.9Z"/><path class="cls-2" d="M57.07,21.66l-1.4-.61-2.85,6.46a14.37,14.37,0,0,0-2.25-1.46c-.24-.14-.44-.24-.59-.35l-.37-.24-.39.19a18.36,18.36,0,0,0-2.76,1.75l-3.64-6.31-1.33.77,3.8,6.56a8.47,8.47,0,0,0-2.71,6.46h1.53c0-2.44.67-5.06,5.43-7.66a2.63,2.63,0,0,1,.26.16c1.78,1,5.08,2.92,5.08,7.65H56.4A9.08,9.08,0,0,0,54,28.62l3.08-7Z"/><path class="cls-2" d="M84.86,43.14c-.09-4-2.7-8.51-7.59-9.55-5.06-1.13-10.62-.48-16.53,2a49.09,49.09,0,0,0-11.08,6.56c-9.6-7.41-19-10.38-27.09-8.55a9.56,9.56,0,0,0-7.79,9.2c-.15,4.56,2.77,8.27,7.44,9.46a21.89,21.89,0,0,0,5.67.75,28,28,0,0,0,12.34-3.19c-2.24,3-3.44,7-2.53,13.22C39.25,73.56,46.61,82.9,49.29,84.4l.37.22L50,84.4c2.45-1.41,11.56-14,11.39-23.85-.09-5.08-1.2-8.36-3.19-11A28.09,28.09,0,0,0,71.37,53a25,25,0,0,0,6.22-.79c5.46-1.42,7.33-5.64,7.26-9.11ZM22.59,50.75c-4.8-1.23-6.39-4.91-6.28-7.94a8.07,8.07,0,0,1,6.54-7.74h0a20.38,20.38,0,0,1,4.49-.48c6.44,0,13.55,2.85,20.86,8.37-12.67,9.59-20.67,9-25.63,7.78Zm37,6.28a28.08,28.08,0,0,1,.28,3.52,13.57,13.57,0,0,1,0,1.41l-16.57-.13,0,1.53,16.4.13a27.74,27.74,0,0,1-1.16,4.56l-14.33,0v1.53l13.74-.05c-2.49,6.22-6.67,11.8-8.31,13.22-2.27-1.79-9-10-10.43-20C37.59,52,42.54,48.73,48.82,44.67l.78-.52c5.13,3.6,8.42,6.06,9.69,11.36l-17.47,0V57l17.8,0Zm17.6-6.28c-8.44,2.16-17-.4-26.09-7.83,4.75-3.58,15.33-10.21,25.8-7.85a8.39,8.39,0,0,1,6.39,8.09c.07,3.75-2.2,6.58-6.11,7.59Z"/><path class="cls-3" d="M54.87,42.9c3.71-2.14,11.36-5.63,16.84-5.54,5.67.1,8.44,1.94,8.79,5.34.45,4.6-5.48,5.87-6.94,6.06-6.63.85-14.74-2.34-18.69-5.87Z"/><path class="cls-3" d="M44.68,42.9c-3.53,2.68-11.53,5.89-17,5.75-5.67-.13-8.42-2-8.74-5.4-.44-4.61,5.52-5.83,7-6C32.56,36.42,40.78,39.32,44.68,42.9Z"/></g></svg>