<svg id="Layer_1" data-name="Layer 1" xmlns="http://www.w3.org/2000/svg" viewBox="0 0 100 100"><defs><style>.cls-1{fill:#504440;}.cls-2{fill:#fee140;}.cls-3{fill:#fff;}</style></defs><circle class="cls-1" cx="49.93" cy="50" r="50"/><path class="cls-2" d="M36.19,34.23c7.71-2.42,21.53-2.61,28.64,0-2.31-2.45-8.12-5.33-7.56-6.77-.09-1.59-1-6.47-6.89-6.47s-6.94,4.61-7,6.47C44.06,29,37.69,32.5,36.19,34.23Z"/><path class="cls-3" d="M36.93,81.44a.8.8,0,0,1-.8-.8V74.07a.8.8,0,0,1,1.6,0v6.57A.8.8,0,0,1,36.93,81.44Z"/><path class="cls-3" d="M63.25,81.44a.8.8,0,0,1-.8-.8V74.07a.8.8,0,0,1,1.6,0v6.57A.8.8,0,0,1,63.25,81.44Z"/><path class="cls-3" d="M50.38,82.31a.8.8,0,0,1-.8-.8V64.66a.8.8,0,0,1,1.6,0V81.51A.8.8,0,0,1,50.38,82.31Z"/><path class="cls-3" d="M50.17,82.46a97.69,97.69,0,0,1-15.51-1.08c-5.24-.89-7.68-2.15-7.68-4,0-8.27,5.69-11.51,12.56-14.61a.8.8,0,0,1,.66,1.46c-7.7,3.47-11.62,6.46-11.62,13.15,0,1.42,7.69,3.46,21.59,3.46s21.25-2,21.25-3.46c0-6.76-3.39-9.43-11-12.85a.8.8,0,1,1,.66-1.46c7,3.15,11.93,6,11.93,14.31,0,1.84-2.4,3.11-7.55,4A95.61,95.61,0,0,1,50.17,82.46Z"/><path class="cls-3" d="M50.92,61.53h-.28c-6.82,0-15.51-.83-19.44-3l-.41-.23V37.82c0-4.86,8.28-12.06,19.72-12.06C62.39,25.76,70,33.42,70,37.42V58.24l-.36.23C66.16,60.73,57.75,61.53,50.92,61.53ZM32.39,57.32c7.07,3.45,29.82,3.47,36,0V37.42c0-3.07-6.74-10.06-17.85-10.06S32.39,34.23,32.39,37.82Z"/><path class="cls-3" d="M60.9,28.29H59.3c0-4.33-3.55-9.15-8.66-9.15-4.58,0-9.45,3.21-9.45,9.15h-1.6A10.47,10.47,0,0,1,43,20.41a11.38,11.38,0,0,1,7.66-2.87C56.11,17.54,60.9,22.56,60.9,28.29Z"/><path class="cls-3" d="M63.67,41.62a.8.8,0,0,1-.68-.38.79.79,0,0,1,.26-1.1l4.1-2.54a54.61,54.61,0,0,0-5.69-1,91.52,91.52,0,0,0-11.28-.87,73.6,73.6,0,0,0-16.6,2.34l3.51,1.85A.79.79,0,0,1,37.63,41a.81.81,0,0,1-1.08.34l-5.33-2.8a.78.78,0,0,1-.42-.79.8.8,0,0,1,.57-.69,77.22,77.22,0,0,1,19-2.93c6.24,0,17.66,1.43,19.27,2.67a.8.8,0,0,1,.31.67.77.77,0,0,1-.38.64l-5.49,3.4A.81.81,0,0,1,63.67,41.62Z"/><path class="cls-3" d="M50.11,55.48c-9.68,0-11.18-18.87-11.2-19.06a.81.81,0,0,1,.74-.86.8.8,0,0,1,.86.74c.36,4.89,2.79,17.58,9.6,17.58a6.55,6.55,0,0,0,4.73-2.17C58.61,47.88,60.27,40,60.2,35.85A.8.8,0,0,1,61,35h0a.81.81,0,0,1,.8.79c.07,4.53-1.68,12.8-5.82,17A8.07,8.07,0,0,1,50.11,55.48Z"/></svg>