<?xml version="1.0" encoding="utf-8"?>
<!-- Generator: Adobe Illustrator 25.0.1, SVG Export Plug-In . SVG Version: 6.00 Build 0)  -->
<svg version="1.1" id="Layer_1" xmlns="http://www.w3.org/2000/svg" xmlns:xlink="http://www.w3.org/1999/xlink" x="0px" y="0px"
	 viewBox="0 0 293.9 93.8" style="enable-background:new 0 0 293.9 93.8;" xml:space="preserve">
<style type="text/css">
	.st0{fill:#FDBA12;}
	.st1{fill:#4F4440;}
</style>
<g>
	<g>
		<path class="st0" d="M92.6,7.1l6.8,11.8l-6.8,11.8H79l-6.8-11.8L79,7.1H92.6 M95.3,0.9H76.3c-0.6,0-1.1,0.3-1.4,0.8l-9.5,16.4
			c-0.3,0.5-0.3,1.1,0,1.6l9.5,16.4c0.3,0.5,0.8,0.8,1.4,0.8h18.9c0.6,0,1.1-0.3,1.4-0.8l9.5-16.4c0.3-0.5,0.3-1.1,0-1.6L96.7,1.7
			C96.4,1.2,95.9,0.9,95.3,0.9L95.3,0.9z"/>
		<path class="st0" d="M82.5,25.1h6.7c0.2,0,0.3-0.1,0.4-0.2l3.3-5.8c0.1-0.1,0.1-0.3,0-0.4l-3.3-5.8c-0.1-0.1-0.2-0.2-0.4-0.2h-6.7
			c-0.2,0-0.3,0.1-0.4,0.2l-3.3,5.8c-0.1,0.1-0.1,0.3,0,0.4l3.3,5.8C82.2,25,82.3,25.1,82.5,25.1z"/>
		<path class="st0" d="M72.5,93.4h12.3c0.4,0,0.8-0.2,1-0.6l6.1-10.6c0.2-0.4,0.2-0.8,0-1.2l-6.1-10.6c-0.2-0.4-0.6-0.6-1-0.6H72.5
			c-0.4,0-0.8,0.2-1,0.6l-6.1,10.6c-0.2,0.4-0.2,0.8,0,1.2l6.1,10.6C71.7,93.1,72.1,93.4,72.5,93.4z"/>
		<path class="st0" d="M41.5,40.4l5.7,9.9l-5.7,9.9H30l-5.7-9.9l5.7-9.9H41.5 M43.5,34.9H28c-0.7,0-1.4,0.4-1.8,1l-7.7,13.4
			c-0.4,0.6-0.4,1.4,0,2.1l7.7,13.4c0.4,0.6,1.1,1,1.8,1h15.4c0.7,0,1.4-0.4,1.8-1L53,51.3c0.4-0.6,0.4-1.4,0-2.1l-7.7-13.4
			C44.9,35.3,44.2,34.9,43.5,34.9L43.5,34.9z"/>
		<path class="st0" d="M49.4,26.6l13.7,23.7L49.4,74H22.1L8.4,50.3l13.7-23.7H49.4 M52.6,19.1H18.9c-0.7,0-1.4,0.4-1.8,1L0.3,49.3
			c-0.4,0.6-0.4,1.4,0,2.1l16.8,29.2c0.4,0.6,1,1,1.8,1h33.7c0.7,0,1.4-0.4,1.8-1l16.8-29.2c0.4-0.6,0.4-1.4,0-2.1L54.4,20.1
			C54,19.5,53.3,19.1,52.6,19.1L52.6,19.1z"/>
	</g>
	<g>
		<path class="st1" d="M120,41.2c4.8,0,9.8,1,9.8,7c0,1.8-0.9,3.1-1.9,4.3c1.4,1.4,2.4,2.8,2.4,4.8c0,7-6,8.3-10.5,8.3l-13.1,0V41.2
			L120,41.2z M121.1,50.7c1.8,0,2.7-1.1,2.7-2.3c0-1.1-0.8-2.1-2.7-2.1l-9.3,0.1v4.2H121.1z M111.9,60.5c0,0,7.2,0.1,8.2,0.1
			c2,0,4.3-0.5,4.3-2.8c0-1.9-2.4-2.1-4.4-2.1h-8.1V60.5z"/>
		<path class="st1" d="M158.7,65.5h-23.1V41.2H158v5.2h-17.2v3.9h14.1v5.3h-14.1v4.7h17.8V65.5z"/>
		<path class="st1" d="M186.5,65.5h-23.1V41.2h22.4v5.2h-17.2v3.9h14.1v5.3h-14.1v4.7h17.8V65.5z"/>
		<path class="st1" d="M212.5,56l5.3-14.8h6.3l-8.7,24.3h-4.6L206.2,53l-4.5,12.5h-4.6l-8.7-24.3h6.3L200,56l4.7-14.8h3.1L212.5,56z
			"/>
		<path class="st1" d="M227.9,65.5V41.2h5.3v24.3H227.9z"/>
		<path class="st1" d="M262.8,57.8c0,6.8-6.7,8.7-12.1,8.7c-3,0-11,0-12.7-7.1l4.7-2.5c2,3.9,5.1,4.1,7.4,4.1c2.2,0,6.9-0.1,6.9-2.7
			c0-5.2-18.8,1.2-18.8-9.8c0-5.3,6.1-8,12.2-8c5.7,0,11.4,2.4,11.9,7.3l-4.3,1.7c-0.9-3.1-4.3-4.3-7.5-4.3c-3.1,0-6.1,1.2-6.1,2.8
			C244.4,53,262.8,47.3,262.8,57.8z"/>
		<path class="st1" d="M290.7,65.5h-23.1V41.2h22.4v5.2h-17.2v3.9H287v5.3h-14.1v4.7h17.8V65.5z"/>
	</g>
</g>
</svg>
