<?xml version="1.0" encoding="utf-8"?>
<!-- Generator: Adobe Illustrator 25.0.1, SVG Export Plug-In . SVG Version: 6.00 Build 0)  -->
<svg version="1.1" id="Layer_1" xmlns="http://www.w3.org/2000/svg" xmlns:xlink="http://www.w3.org/1999/xlink" x="0px" y="0px"
	 viewBox="0 0 400 129.8" style="enable-background:new 0 0 400 129.8;" xml:space="preserve">
<style type="text/css">
	.st0{fill:#FDBA12;}
	.st1{fill:#4F4440;}
</style>
<g>
	<g>
		<path class="st0" d="M128.1,10.2l9.4,16.2l-9.4,16.2h-18.7L100,26.4l9.4-16.2H128.1 M131.7,1.6h-26c-0.8,0-1.6,0.4-2,1.1l-13,22.5
			c-0.4,0.7-0.4,1.6,0,2.3l13,22.5c0.4,0.7,1.2,1.1,2,1.1h26c0.8,0,1.6-0.4,2-1.1l13-22.5c0.4-0.7,0.4-1.6,0-2.3l-13-22.5
			C133.3,2.1,132.5,1.6,131.7,1.6L131.7,1.6z"/>
		<path class="st0" d="M114,35h9.4c0.2,0,0.3-0.1,0.4-0.2l4.7-8.1c0.1-0.1,0.1-0.3,0-0.4l-4.7-8.1c-0.1-0.1-0.2-0.2-0.4-0.2H114
			c-0.2,0-0.3,0.1-0.4,0.2l-4.7,8.1c-0.1,0.1-0.1,0.3,0,0.4l4.7,8.1C113.7,34.9,113.9,35,114,35z"/>
		<path class="st0" d="M100.2,128.6h17.4c0.4,0,0.8-0.2,1-0.6l8.7-15c0.2-0.4,0.2-0.8,0-1.2l-8.7-15c-0.2-0.4-0.6-0.6-1-0.6h-17.4
			c-0.4,0-0.8,0.2-1,0.6l-8.7,15c-0.2,0.4-0.2,0.8,0,1.2l8.7,15C99.3,128.4,99.7,128.6,100.2,128.6z"/>
		<path class="st0" d="M57.8,55.9l7.8,13.6l-7.8,13.6H42.1l-7.8-13.6l7.8-13.6H57.8 M60.6,48.3H39.4c-1,0-2,0.5-2.5,1.4L26.3,68.1
			c-0.5,0.9-0.5,2,0,2.9l10.6,18.3c0.5,0.9,1.5,1.4,2.5,1.4h21.2c1,0,2-0.5,2.5-1.4l10.6-18.3c0.5-0.9,0.5-2,0-2.9L63,49.8
			C62.5,48.9,61.6,48.3,60.6,48.3L60.6,48.3z"/>
		<path class="st0" d="M68.7,37l18.8,32.5L68.7,102H31.2L12.4,69.5L31.2,37H68.7 M73.1,26.6H26.8c-1,0-1.9,0.5-2.4,1.4l-23.1,40
			c-0.5,0.9-0.5,2,0,2.8l23.1,40c0.5,0.9,1.4,1.4,2.4,1.4h46.2c1,0,1.9-0.5,2.4-1.4l23.1-40c0.5-0.9,0.5-2,0-2.8l-23.1-40
			C75,27.2,74.1,26.6,73.1,26.6L73.1,26.6z"/>
	</g>
	<g>
		<path class="st1" d="M165.6,57c6.6,0,13.5,1.4,13.5,9.6c0,2.5-1.3,4.2-2.7,6c1.9,1.9,3.3,3.9,3.3,6.6c0,9.6-8.3,11.3-14.4,11.3
			l-18-0.1V57.1L165.6,57z M167.1,70.1c2.5,0,3.8-1.6,3.8-3.1c0-1.5-1.2-2.9-3.7-2.9l-12.7,0.2v5.8H167.1z M154.5,83.6
			c0,0,9.9,0.2,11.2,0.2c2.8,0,6-0.7,6-3.9c0-2.7-3.3-2.9-6-2.9h-11.2V83.6z"/>
		<path class="st1" d="M218.7,90.4H187V57.1h30.8v7.1h-23.6v5.4h19.4v7.3h-19.4v6.5h24.5V90.4z"/>
		<path class="st1" d="M257,90.4h-31.7V57.1h30.8v7.1h-23.6v5.4h19.4v7.3h-19.4v6.5H257V90.4z"/>
		<path class="st1" d="M292.6,77.4l7.3-20.3h8.6l-12,33.3h-6.3l-6.3-17.1l-6.1,17.1h-6.3l-12-33.3h8.6l7.3,20.3l6.4-20.3h4.3
			L292.6,77.4z"/>
		<path class="st1" d="M313.7,90.4V57.1h7.2v33.3H313.7z"/>
		<path class="st1" d="M361.7,79.8c0,9.3-9.2,11.9-16.6,11.9c-4.1,0-15.1,0-17.4-9.7l6.5-3.5c2.8,5.4,7,5.6,10.1,5.6
			c3,0,9.5-0.2,9.5-3.8c0-7.2-25.8,1.6-25.8-13.5c0-7.3,8.4-11,16.7-11c7.8,0,15.6,3.3,16.3,10l-5.9,2.3c-1.3-4.2-5.9-5.9-10.3-5.9
			c-4.3,0-8.3,1.6-8.3,3.8C336.4,73.2,361.7,65.4,361.7,79.8z"/>
		<path class="st1" d="M400,90.4h-31.7V57.1h30.8v7.1h-23.6v5.4h19.4v7.3h-19.4v6.5H400V90.4z"/>
	</g>
</g>
</svg>
