<svg width="110" height="110" viewBox="0 0 110 110" fill="none" xmlns="http://www.w3.org/2000/svg">
<circle cx="55" cy="55" r="55" fill="#4E4540"/>
<path d="M55.0875 25.1094C71.7742 25.1455 85.3725 38.5888 85.3442 55.023C85.3159 71.4735 71.6625 84.9151 55.0225 84.8741C38.3109 84.8331 24.6975 71.3439 24.7659 54.8966C24.8342 38.4641 38.4642 25.075 55.0875 25.1094ZM26.7625 55.0049C26.7859 70.3858 39.5325 82.9415 55.0842 82.9054C70.6775 82.8693 83.3842 70.2988 83.3475 54.9475C83.3109 39.5929 70.6125 27.0848 55.0575 27.0815C39.4875 27.0766 26.7392 39.6585 26.7642 55.0065L26.7625 55.0049Z" fill="#FDBA12"/>
<path d="M54.0578 58.5852C53.4828 58.2046 52.9228 57.9405 52.5012 57.5352C51.4012 56.4754 51.1145 55.1711 51.6612 53.7552C51.8278 53.3221 51.7395 53.1039 51.4428 52.8135C49.3595 50.7775 47.2828 48.7366 45.2312 46.6694C44.9862 46.4216 44.7695 45.9885 44.8045 45.6719C44.8378 45.3864 45.1928 45.0041 45.4845 44.9155C45.7678 44.8286 46.2395 44.9631 46.4745 45.1682C47.2812 45.8753 48.0212 46.6579 48.7862 47.4109C50.1545 48.7595 51.5278 50.1032 52.8828 51.4633C53.1428 51.7241 53.3378 51.8242 53.7312 51.6667C55.5795 50.9252 57.6212 51.7701 58.4095 53.5584C59.1962 55.3434 58.4245 57.4138 56.6062 58.2177C56.1312 58.4277 56.0412 58.6771 56.0445 59.1316C56.0628 61.6335 56.0578 64.1371 56.0512 66.6391C56.0478 67.543 55.2645 68.0861 54.5728 67.6152C54.2945 67.4249 54.0845 66.9459 54.0795 66.5931C54.0378 64.1109 54.0578 61.6286 54.0578 59.1463C54.0578 58.9232 54.0578 58.7001 54.0578 58.5852ZM55.0462 56.6148C55.9828 56.6198 56.7028 55.911 56.7012 54.9873C56.6995 54.0899 56.0028 53.3877 55.0978 53.3697C54.1578 53.3516 53.4228 54.0473 53.4128 54.966C53.4012 55.8913 54.1145 56.6099 55.0462 56.6148Z" fill="#FDBA12"/>
<path d="M36.3846 55.9742C35.9496 55.9742 35.5146 55.9922 35.0812 55.9693C34.4879 55.9397 34.1129 55.5394 34.1212 54.9816C34.1296 54.4484 34.4896 54.035 35.0429 54.0186C35.9529 53.9907 36.8629 53.9923 37.7729 54.0169C38.3362 54.0317 38.6879 54.4287 38.6946 54.9701C38.7029 55.5345 38.3329 55.9414 37.7496 55.9709C37.2962 55.9939 36.8396 55.9758 36.3846 55.9758V55.9742Z" fill="#FDBA12"/>
<path d="M73.7169 54.0106C74.1519 54.0106 74.5885 53.9942 75.0219 54.0139C75.6002 54.0418 75.9519 54.4011 75.9719 54.9458C75.9935 55.5053 75.6202 55.9499 75.0452 55.9663C74.1352 55.9925 73.2219 55.9925 72.3119 55.9663C71.7502 55.9499 71.4035 55.5512 71.3985 55.0049C71.3919 54.4323 71.7502 54.0451 72.3502 54.0156C72.8052 53.9926 73.2619 54.0106 73.7169 54.0106Z" fill="#FDBA12"/>
<path d="M54.0617 73.3304C54.0617 72.9005 54.0433 72.4707 54.0667 72.0425C54.1 71.4535 54.4983 71.104 55.08 71.1155C55.6333 71.127 56.0283 71.4682 56.0433 72.0277C56.0683 72.9268 56.07 73.8258 56.0433 74.7249C56.0267 75.2811 55.6183 75.6272 55.0683 75.6289C54.525 75.6289 54.105 75.2794 54.07 74.7413C54.04 74.2737 54.0633 73.8012 54.0633 73.332C54.0633 73.332 54.0633 73.332 54.0617 73.332V73.3304Z" fill="#FDBA12"/>
<path d="M56.0508 36.6378C56.0508 37.066 56.0692 37.4975 56.0458 37.924C56.0158 38.49 55.6375 38.8264 55.0775 38.8215C54.5208 38.8165 54.0842 38.4704 54.0675 37.947C54.0392 37.0496 54.0408 36.1489 54.0675 35.2515C54.0842 34.7018 54.5008 34.3475 55.0408 34.3409C55.6058 34.3343 56.0158 34.7068 56.0442 35.2892C56.0658 35.7371 56.0492 36.1882 56.0492 36.6378H56.0508Z" fill="#FDBA12"/>
<path d="M45.7289 40.0552C45.1956 40.0487 44.7372 39.5876 44.7422 39.0626C44.7472 38.5278 45.1956 38.1012 45.7472 38.1045C46.3072 38.1078 46.7239 38.5262 46.7189 39.0807C46.7139 39.6254 46.2706 40.0601 45.7306 40.0536L45.7289 40.0552Z" fill="#FDBA12"/>
<path d="M65.3696 39.0823C65.3612 39.6073 64.8929 40.0618 64.3629 40.0552C63.8212 40.0487 63.3896 39.6057 63.3946 39.061C63.3996 38.5098 63.8246 38.0996 64.3862 38.1045C64.9412 38.1111 65.3779 38.5442 65.3696 39.0823Z" fill="#FDBA12"/>
<path d="M39.9143 45.7777C39.9277 46.3126 39.4943 46.7539 38.941 46.7654C38.381 46.7769 37.9477 46.3683 37.9377 45.8187C37.9277 45.2724 38.3543 44.8278 38.8977 44.8147C39.4293 44.8032 39.901 45.2494 39.9143 45.7777Z" fill="#FDBA12"/>
<path d="M72.1722 45.7784C72.1822 46.3313 71.7689 46.7579 71.2122 46.7677C70.6605 46.7759 70.2072 46.3526 70.1955 45.8194C70.1839 45.2944 70.6372 44.8318 71.1722 44.8187C71.7139 44.8055 72.1622 45.2354 72.1722 45.7801V45.7784Z" fill="#FDBA12"/>
<path d="M39.916 64.1662C39.926 64.6879 39.4693 65.1538 38.936 65.167C38.3943 65.1801 37.9477 64.7486 37.9377 64.2039C37.9277 63.6494 38.3427 63.2245 38.8993 63.2179C39.4543 63.2097 39.9043 63.6313 39.9143 64.1678L39.916 64.1662Z" fill="#FDBA12"/>
<path d="M72.1745 64.1647C72.1829 64.7093 71.7562 65.1572 71.2145 65.1687C70.6845 65.1802 70.2128 64.7323 70.1995 64.204C70.1862 63.6708 70.6228 63.2279 71.1728 63.218C71.7345 63.2065 72.1662 63.615 72.1745 64.1647Z" fill="#FDBA12"/>
<path d="M46.715 70.9154C46.7133 71.4683 46.29 71.8817 45.7283 71.8785C45.1766 71.8752 44.735 71.4421 44.7383 70.9056C44.7416 70.3789 45.2066 69.9245 45.74 69.9278C46.2833 69.931 46.7166 70.3707 46.715 70.9154Z" fill="#FDBA12"/>
<path d="M65.3696 70.8958C65.3796 71.4323 64.9446 71.8703 64.3913 71.8786C63.8296 71.8868 63.4013 71.4766 63.3946 70.927C63.3879 70.3807 63.8163 69.9377 64.3596 69.9278C64.8896 69.9196 65.3613 70.3692 65.3713 70.8958H65.3696Z" fill="#FDBA12"/>
</svg>
