<svg id="Layer_1" data-name="Layer 1" xmlns="http://www.w3.org/2000/svg" viewBox="0 0 100 100"><defs><style>.cls-1{fill:#67be61;}.cls-2{fill:#fff;}.cls-3{fill:#c1e1bc;}</style></defs><circle class="cls-1" cx="49.93" cy="50" r="50"/><path class="cls-2" d="M51.34,85.44H47.87a2.59,2.59,0,0,1-2.59-2.59v-14h1.43v14A1.15,1.15,0,0,0,47.87,84h3.47a1.15,1.15,0,0,0,1.15-1.15v-14h1.43v14A2.59,2.59,0,0,1,51.34,85.44Z"/><rect class="cls-2" x="52.49" y="42.48" width="1.43" height="5.58"/><path class="cls-2" d="M53.92,26.31H52.49V21.15A1.15,1.15,0,0,0,51.34,20H47.87a1.15,1.15,0,0,0-1.16,1.15v4.91H45.28V21.15a2.59,2.59,0,0,1,2.59-2.59h3.47a2.59,2.59,0,0,1,2.58,2.59Z"/><rect class="cls-2" x="45.28" y="42.48" width="1.43" height="5.58"/><path class="cls-2" d="M70.93,42.91H23.66V25.34l47.4.41,8.51,8.51ZM25.09,41.48H70.33l7.22-7.22-7.08-7.08-45.38-.4Z"/><polyline class="cls-3" points="27.7 29.23 27.7 38.87 68.99 38.87 73.6 34.15 69.13 29.52"/><path class="cls-2" d="M77.19,65.77,29.8,65.36l-8.52-8.51,8.65-8.65H77.19Zm-46.8-1.84,45.37.4V49.63H30.52l-7.21,7.22Z"/><polygon class="cls-3" points="72.88 61.76 72.88 52.01 31.77 52.01 27.22 56.88 31.59 61.48 72.88 61.76"/></svg>