<svg id="Layer_1" data-name="Layer 1" xmlns="http://www.w3.org/2000/svg" viewBox="0 0 100 100"><defs><style>.cls-1{fill:#67be61;}.cls-2{fill:#fff;}.cls-3{fill:#c1e1bc;}</style></defs><circle class="cls-1" cx="49.93" cy="50" r="50"/><path class="cls-2" d="M49.61,50.08A16.26,16.26,0,1,1,65.87,33.82,16.27,16.27,0,0,1,49.61,50.08Zm0-30.87A14.61,14.61,0,1,0,64.22,33.82,14.63,14.63,0,0,0,49.61,19.21Z"/><path class="cls-2" d="M88.69,51.29a.79.79,0,0,1-.58-.25L74.51,37.45a.83.83,0,0,1,0-1.17.82.82,0,0,1,1.16,0l13.6,13.6a.8.8,0,0,1,0,1.16A.79.79,0,0,1,88.69,51.29Z"/><path class="cls-2" d="M75.09,51.29a.79.79,0,0,1-.58-.25.82.82,0,0,1,0-1.16l13.6-13.6a.82.82,0,1,1,1.16,1.17L75.67,51A.79.79,0,0,1,75.09,51.29Z"/><path class="cls-3" d="M49.72,61.69c-5.56,0-10.52-1.53-13.84-3.93V77.82a143.7,143.7,0,0,0,27.67-.09v-20C60.23,60.16,55.27,61.69,49.72,61.69Z"/><rect class="cls-2" x="31.41" y="54.94" width="1.65" height="25.39"/><rect class="cls-2" x="66.41" y="55.35" width="1.65" height="24.98"/><path class="cls-2" d="M49,82.31A128.56,128.56,0,0,1,28.94,81c-6.53-1.09-9.7-2.7-9.7-4.92,0-10.1,6.35-19.23,16.57-23.83l1-.46L37,52.85c.31,2.45,5.23,5.1,12.65,5.1S62,55.3,62.27,52.85l.13-1.11,1,.46C73.64,56.8,80,65.93,80,76c0,2.21-3.22,3.76-10.14,4.89A140.32,140.32,0,0,1,49,82.31ZM35.62,54.1C26.51,58.55,20.89,66.87,20.89,76c0,.88,2.18,2.27,8.32,3.3A127.79,127.79,0,0,0,49,80.66C68.15,80.66,78.34,78,78.34,76c0-9.16-5.62-17.48-14.73-21.93-1.38,3.2-7.06,5.49-14,5.49S37,57.3,35.62,54.1Z"/></svg>