<svg id="Layer_1" data-name="Layer 1" xmlns="http://www.w3.org/2000/svg" viewBox="0 0 100 100"><defs><style>.cls-1{fill:#504440;}.cls-2{fill:#fee140;}.cls-3{fill:#fff;}</style></defs><circle class="cls-1" cx="49.93" cy="50" r="50"/><path class="cls-2" d="M40.87,62.85A20.57,20.57,0,0,1,29,59.47V76.72a124.29,124.29,0,0,0,23.78-.08V59.47A20.6,20.6,0,0,1,40.87,62.85Z"/><path class="cls-3" d="M40.47,52.24c-6.9,0-10.07-12.12-10.2-12.64l1.51-.38a31.44,31.44,0,0,0,2.28,5.88c1.33,2.55,3.51,5.58,6.41,5.58,4.48,0,8.25-8.31,9.32-11.52l1.48.5C51.1,40.17,47,52.24,40.47,52.24Z"/><path class="cls-3" d="M40.78,36.47c-.86,0-21,0-21-4.29,0-2,4-2.84,7.53-3.37a3.77,3.77,0,0,0,2.43-1.37,2.17,2.17,0,0,0,.56-1.28,6.81,6.81,0,0,1,6.8-6.81H44.5a6.81,6.81,0,0,1,6.81,6.8,2.47,2.47,0,0,0,.89,1.59,3.84,3.84,0,0,0,2.13,1c6.72,1,7.5,2.44,7.5,3.4C61.83,36.42,41.64,36.47,40.78,36.47ZM21.31,32.19c.63,1,7.48,2.72,19.47,2.72s18.86-1.73,19.47-2.73c-.23-.32-1.66-1.16-6.16-1.85h0a5.5,5.5,0,0,1-3-1.49,3.87,3.87,0,0,1-1.35-2.68,5.25,5.25,0,0,0-5.25-5.25H37.05a5.25,5.25,0,0,0-5.24,5.24,3.67,3.67,0,0,1-.89,2.25,5.31,5.31,0,0,1-3.43,2C22.43,31.11,21.47,32,21.31,32.19Z"/><rect class="cls-3" x="25.06" y="57.05" width="1.56" height="21.83"/><rect class="cls-3" x="55.15" y="57.4" width="1.56" height="21.47"/><path class="cls-3" d="M40.27,80.65A111.39,111.39,0,0,1,23,79.48c-5.73-1-8.4-2.32-8.4-4.31,0-8.7,5.47-16.58,14.28-20.54l1-.44L30,55.24c.33,2.59,5.85,4.32,10.81,4.32s10.48-1.73,10.8-4.32l.14-1.05,1,.44C61.49,58.59,67,66.47,67,75.17c0,2-2.79,3.31-8.78,4.28A120.27,120.27,0,0,1,40.27,80.65ZM28.71,56.43c-7.77,3.82-12.55,10.93-12.55,18.74,0,.17.2,1.62,7.09,2.77a109.52,109.52,0,0,0,17,1.15c16.18,0,25.13-2.31,25.13-3.92,0-7.81-4.79-14.92-12.56-18.74-1.25,2.73-6.12,4.69-12.06,4.69S30,59.16,28.71,56.43Z"/><path class="cls-3" d="M92.37,38.44A5.21,5.21,0,0,0,90,36.5a4.15,4.15,0,0,0,.58-2.74,4.37,4.37,0,0,0-1.14-2.43A4.45,4.45,0,0,0,87.13,30a4.09,4.09,0,0,0-2.74.28,5.34,5.34,0,0,0-10.63,0A4.08,4.08,0,0,0,71,30a4.45,4.45,0,0,0-2.3,1.36,4.37,4.37,0,0,0-1.14,2.43,4.15,4.15,0,0,0,.58,2.74,5.23,5.23,0,0,0-3.26,4.88,5.29,5.29,0,0,0,5.31,5.32h8.37V56a.51.51,0,0,0,.5.5.45.45,0,0,0,.44-.45V46.7h8.42a5.31,5.31,0,0,0,5.32-5.32A5.19,5.19,0,0,0,92.37,38.44Zm-1.29,6.08a4.32,4.32,0,0,1-3.14,1.29H79.52V43.33l3.41-3.41a.43.43,0,0,0,0-.63.44.44,0,0,0-.62,0l-2.79,2.79V32.91a.44.44,0,0,0-.44-.44.54.54,0,0,0-.5.44v5.58l-2.73-2.74a.43.43,0,0,0-.63,0,.44.44,0,0,0,0,.62l3.41,3.42v6H70.21a4.41,4.41,0,0,1-1.71-8.49l.94-.38-.51-.88a3.38,3.38,0,0,1-.47-2.18,3.5,3.5,0,0,1,.91-2,3.64,3.64,0,0,1,1.86-1.09,3.27,3.27,0,0,1,2.17.22l1.11.5.13-1.21a4.5,4.5,0,0,1,4.44-4,4.25,4.25,0,0,1,3,1.16,4.29,4.29,0,0,1,1.46,2.87l.13,1.21,1.11-.5a3.35,3.35,0,0,1,2.17-.22,3.64,3.64,0,0,1,1.86,1.09,3.53,3.53,0,0,1,.91,2,3.32,3.32,0,0,1-.47,2.18l-.51.88.94.38a4.42,4.42,0,0,1,1.43,7.2Z"/><path class="cls-3" d="M79.08,56.71a.7.7,0,0,1-.69-.69V46.89H70.21a5.5,5.5,0,0,1-4.59-8.55,5.27,5.27,0,0,1,2.27-1.93,4.28,4.28,0,0,1-.5-2.67,4.68,4.68,0,0,1,3.58-4A4.22,4.22,0,0,1,73.6,30a5.42,5.42,0,0,1,1.77-3.3,5.49,5.49,0,0,1,7.41,0A5.42,5.42,0,0,1,84.55,30a4.35,4.35,0,0,1,2.62-.19,4.68,4.68,0,0,1,3.59,4,4.28,4.28,0,0,1-.5,2.67,5.27,5.27,0,0,1,2.27,1.93h0a5.41,5.41,0,0,1,.92,3,5.5,5.5,0,0,1-5.51,5.51H79.71v9.18A.64.64,0,0,1,79.08,56.71ZM72,30.05a4,4,0,0,0-.88.1,4.36,4.36,0,0,0-2.21,1.31,4.14,4.14,0,0,0-1.08,2.33,4,4,0,0,0,.55,2.62l.12.19-.21.08a5,5,0,0,0-3.15,4.7,5.09,5.09,0,0,0,5.12,5.12h8.57V56a.3.3,0,0,0,.3.3.24.24,0,0,0,.24-.25V46.5h8.62a5.09,5.09,0,0,0,5.12-5.12,5.11,5.11,0,0,0-.85-2.83,5,5,0,0,0-2.3-1.87l-.2-.08.11-.19a4.07,4.07,0,0,0,.56-2.62,4.22,4.22,0,0,0-1.09-2.33,4.29,4.29,0,0,0-2.2-1.3,4.07,4.07,0,0,0-2.62.26l-.24.11,0-.26A5.07,5.07,0,0,0,82.52,27a5.1,5.1,0,0,0-6.89,0A5.07,5.07,0,0,0,74,30.27l0,.26-.24-.11A4.38,4.38,0,0,0,72,30.05Zm16,16H79.32V43.25l3.48-3.47a.28.28,0,0,0,.07-.17.29.29,0,0,0-.07-.18.27.27,0,0,0-.36,0l-3.12,3.12V32.91a.25.25,0,0,0-.24-.25.35.35,0,0,0-.3.25V39l-3.07-3.08a.26.26,0,0,0-.35,0,.24.24,0,0,0,0,.35l3.47,3.48V46H70.21a4.59,4.59,0,0,1-4.62-4.62,4.45,4.45,0,0,1,.77-2.55,4.36,4.36,0,0,1,2.07-1.69l.73-.3-.4-.69a3.48,3.48,0,0,1-.49-2.29,3.63,3.63,0,0,1,1-2.07,3.79,3.79,0,0,1,2-1.15,3.43,3.43,0,0,1,2.3.24l.86.38.11-.94a4.64,4.64,0,0,1,7.73-3,4.52,4.52,0,0,1,1.53,3l.1.94.86-.38a3.43,3.43,0,0,1,2.3-.24,3.78,3.78,0,0,1,2,1.15,3.66,3.66,0,0,1,1,2.07,3.45,3.45,0,0,1-.49,2.29l-.4.69.73.3a4.36,4.36,0,0,1,2.07,1.69,4.64,4.64,0,0,1-.57,5.82h0A4.51,4.51,0,0,1,87.94,46Zm-8.23-.39h8.23a4.2,4.2,0,0,0,4.23-4.23,4.17,4.17,0,0,0-.7-2.34,4.09,4.09,0,0,0-1.89-1.54L88.42,37,89.05,36a3.07,3.07,0,0,0,.45-2.05,3.35,3.35,0,0,0-.86-1.85,3.42,3.42,0,0,0-1.76-1,3.06,3.06,0,0,0-2,.21l-1.35.6-.16-1.47a4.18,4.18,0,0,0-1.4-2.75,4.23,4.23,0,0,0-5.69,0,4.16,4.16,0,0,0-1.4,2.75l-.15,1.47-1.36-.6a3.06,3.06,0,0,0-2-.21,3.44,3.44,0,0,0-2.62,2.89A3.15,3.15,0,0,0,69.1,36L69.73,37l-1.16.47A4.09,4.09,0,0,0,66.68,39a4.22,4.22,0,0,0,3.53,6.57h8.23V39.87l-3.36-3.36a.64.64,0,0,1,.9-.9L78.39,38V32.91a.71.71,0,0,1,.69-.64.64.64,0,0,1,.63.64v8.7l2.46-2.46a.65.65,0,0,1,.9,0,.64.64,0,0,1,0,.91l-3.36,3.35Z"/></svg>