<svg width="110" height="110" viewBox="0 0 110 110" fill="none" xmlns="http://www.w3.org/2000/svg">
<circle cx="55" cy="55" r="55" fill="#4E4540"/>
<g clip-path="url(#clip0_765_1484)">
<path d="M77.2313 32.4421L81.0748 38.9512L77.2313 45.4604H69.5443L65.7007 38.9512L69.5443 32.4421H77.2313ZM78.7315 29H68.0517C67.7212 29 67.4136 29.1745 67.2465 29.453L61.9066 38.4982C61.7395 38.7804 61.7395 39.1257 61.9066 39.4079L67.2465 48.4531C67.4136 48.7353 67.7174 48.9062 68.0517 48.9062H78.7315C79.0619 48.9062 79.3696 48.7316 79.5367 48.4531L84.8766 39.4079C85.0437 39.1257 85.0437 38.7804 84.8766 38.4982L79.5367 29.453C79.3696 29.1708 79.0657 29 78.7315 29Z" fill="#FDBA12"/>
<path d="M71.5527 42.3821H75.2291C75.3431 42.3821 75.4494 42.3227 75.5064 42.2261L77.3446 39.1108C77.4016 39.0143 77.4016 38.8955 77.3446 38.7952L75.5064 35.6799C75.4494 35.5833 75.3431 35.5239 75.2291 35.5239H71.5527C71.4388 35.5239 71.3324 35.5833 71.2755 35.6799L69.4373 38.7952C69.3803 38.8917 69.3803 39.0106 69.4373 39.1108L71.2755 42.2261C71.3324 42.3227 71.4388 42.3821 71.5527 42.3821Z" fill="#FDBA12"/>
<path d="M65.9987 80.0001H72.6792C72.9945 80.0001 73.2869 79.8367 73.4464 79.5656L76.7848 73.9105C76.9443 73.6432 76.9443 73.3127 76.7848 73.0454L73.4464 67.3902C73.2869 67.1229 72.9945 66.9558 72.6792 66.9558H65.9987C65.6834 66.9558 65.391 67.1192 65.2315 67.3902L61.8931 73.0454C61.7336 73.3127 61.7336 73.6432 61.8931 73.9105L65.2315 79.5656C65.391 79.833 65.6834 80.0001 65.9987 80.0001Z" fill="#FDBA12"/>
<path d="M48.3775 50.8109L51.5982 56.2618L48.3775 61.7127H41.9362L38.7155 56.2618L41.9362 50.8109H48.3775ZM49.5055 47.7476H40.8082C40.3866 47.7476 39.9993 47.9666 39.7866 48.3231L35.4379 55.6863C35.229 56.0427 35.229 56.4809 35.4379 56.8373L39.7866 64.2005C39.9955 64.5569 40.3866 64.776 40.8082 64.776H49.5055C49.9271 64.776 50.3145 64.5569 50.5272 64.2005L54.8758 56.8373C55.0847 56.4809 55.0847 56.0427 54.8758 55.6863L50.5272 48.3231C50.3183 47.9666 49.9271 47.7476 49.5055 47.7476Z" fill="#FDBA12"/>
<path d="M52.8703 43.199L60.5839 56.2618L52.8703 69.3246H37.443L29.7294 56.2618L37.443 43.199H52.8703ZM54.6515 39.0439H35.658C35.244 39.0439 34.8604 39.2593 34.6515 39.6121L25.1567 55.6937C24.9478 56.0464 24.9478 56.4771 25.1567 56.8299L34.6553 72.9115C34.8642 73.2643 35.2478 73.4796 35.6618 73.4796H54.6553C55.0693 73.4796 55.4529 73.2643 55.6618 72.9115L65.1605 56.8299C65.3694 56.4771 65.3694 56.0464 65.1605 55.6937L55.6618 39.6121C55.4529 39.2593 55.0693 39.0439 54.6553 39.0439H54.6515Z" fill="#FDBA12"/>
</g>
<defs>
<clipPath id="clip0_765_1484">
<rect width="60" height="51" fill="white" transform="translate(25 29)"/>
</clipPath>
</defs>
</svg>
