<svg width="110" height="111" viewBox="0 0 110 111" fill="none" xmlns="http://www.w3.org/2000/svg">
<circle cx="55" cy="55.3805" r="55" fill="white"/>
<g clip-path="url(#clip0_765_1476)">
<path d="M77.2313 32.8226L81.0748 39.3317L77.2313 45.8408H69.5443L65.7007 39.3317L69.5443 32.8226H77.2313ZM78.7315 29.3805H68.0517C67.7212 29.3805 67.4136 29.555 67.2465 29.8335L61.9066 38.8787C61.7395 39.1609 61.7395 39.5062 61.9066 39.7884L67.2465 48.8336C67.4136 49.1158 67.7174 49.2866 68.0517 49.2866H78.7315C79.0619 49.2866 79.3696 49.1121 79.5367 48.8336L84.8766 39.7884C85.0437 39.5062 85.0437 39.1609 84.8766 38.8787L79.5367 29.8335C79.3696 29.5513 79.0657 29.3805 78.7315 29.3805Z" fill="#FDBA12"/>
<path d="M71.5527 42.7627H75.2291C75.3431 42.7627 75.4494 42.7032 75.5064 42.6067L77.3446 39.4914C77.4016 39.3948 77.4016 39.276 77.3446 39.1758L75.5064 36.0604C75.4494 35.9639 75.3431 35.9045 75.2291 35.9045H71.5527C71.4388 35.9045 71.3324 35.9639 71.2755 36.0604L69.4373 39.1758C69.3803 39.2723 69.3803 39.3911 69.4373 39.4914L71.2755 42.6067C71.3324 42.7032 71.4388 42.7627 71.5527 42.7627Z" fill="#FDBA12"/>
<path d="M65.9987 80.3805H72.6792C72.9945 80.3805 73.2869 80.2171 73.4464 79.946L76.7848 74.2909C76.9443 74.0236 76.9443 73.6931 76.7848 73.4258L73.4464 67.7706C73.2869 67.5033 72.9945 67.3362 72.6792 67.3362H65.9987C65.6834 67.3362 65.391 67.4996 65.2315 67.7706L61.8931 73.4258C61.7336 73.6931 61.7336 74.0236 61.8931 74.2909L65.2315 79.946C65.391 80.2134 65.6834 80.3805 65.9987 80.3805Z" fill="#FDBA12"/>
<path d="M48.3775 51.1915L51.5982 56.6424L48.3775 62.0933H41.9362L38.7155 56.6424L41.9362 51.1915H48.3775ZM49.5055 48.1281H40.8082C40.3866 48.1281 39.9993 48.3472 39.7866 48.7037L35.4379 56.0668C35.229 56.4233 35.229 56.8615 35.4379 57.2179L39.7866 64.5811C39.9955 64.9375 40.3866 65.1566 40.8082 65.1566H49.5055C49.9271 65.1566 50.3145 64.9375 50.5272 64.5811L54.8758 57.2179C55.0847 56.8615 55.0847 56.4233 54.8758 56.0668L50.5272 48.7037C50.3183 48.3472 49.9271 48.1281 49.5055 48.1281Z" fill="#FDBA12"/>
<path d="M52.8703 43.5795L60.5839 56.6424L52.8703 69.7052H37.443L29.7294 56.6424L37.443 43.5795H52.8703ZM54.6515 39.4245H35.658C35.244 39.4245 34.8604 39.6399 34.6515 39.9926L25.1567 56.0743C24.9478 56.427 24.9478 56.8577 25.1567 57.2105L34.6553 73.2921C34.8642 73.6448 35.2478 73.8602 35.6618 73.8602H54.6553C55.0693 73.8602 55.4529 73.6448 55.6618 73.2921L65.1605 57.2105C65.3694 56.8577 65.3694 56.427 65.1605 56.0743L55.6618 39.9926C55.4529 39.6399 55.0693 39.4245 54.6553 39.4245H54.6515Z" fill="#FDBA12"/>
</g>
<defs>
<clipPath id="clip0_765_1476">
<rect width="60" height="51" fill="white" transform="translate(25 29.3805)"/>
</clipPath>
</defs>
</svg>
