<svg width="877" height="749" viewBox="0 0 877 749" fill="none" xmlns="http://www.w3.org/2000/svg">
<g clip-path="url(#clip0_128_10472)">
<path d="M626.791 275.457L527.645 332.699L428.5 275.457V160.974L527.645 103.732L626.791 160.974V275.457Z" stroke="#FDBA12" stroke-width="3"/>
<path d="M452.791 609.457L353.645 666.699L254.5 609.457V494.974L353.645 437.732L452.791 494.974V609.457Z" stroke="#FDBA12" stroke-width="3"/>
<path d="M838.791 388.457L739.645 445.699L640.5 388.457V273.974L739.645 216.732L838.791 273.974V388.457Z" stroke="#FDBA12" stroke-width="3"/>
<path d="M866.5 711.135L804 747.267L741.5 711.135V638.865L804 602.733L866.5 638.865V711.135Z" stroke="#FDBA12" stroke-width="3"/>
<path d="M136.5 111.135L74 147.267L11.5 111.135V38.8654L74 2.73263L136.5 38.8654V111.135Z" stroke="#FDBA12" stroke-width="3"/>
</g>
<defs>
<clipPath id="clip0_128_10472">
<rect y="0.880371" width="877" height="748" rx="24" fill="white"/>
</clipPath>
</defs>
</svg>
