<svg id="Layer_1" data-name="Layer 1" xmlns="http://www.w3.org/2000/svg" viewBox="0 0 100 100"><defs><style>.cls-1{fill:#504440;}.cls-2{fill:#fff;}.cls-3{fill:#fee140;}</style></defs><circle class="cls-1" cx="49.93" cy="50" r="50"/><path class="cls-2" d="M28.33,57.94a.69.69,0,0,1-.45-.16,11.44,11.44,0,0,1-2.89-5,.82.82,0,0,1,0-.27c.27-1.85,7.72-15,8.76-16.46.81-1.12,4.23-1.95,6.2-2.34a26.89,26.89,0,0,1,7.64-.64.72.72,0,1,1-.21,1.43,26,26,0,0,0-7.14.63c-3.44.69-5.09,1.45-5.32,1.77-1.09,1.5-7.95,13.84-8.47,15.7a10.13,10.13,0,0,0,2.35,4,.73.73,0,0,1,.11,1A.71.71,0,0,1,28.33,57.94Z"/><path class="cls-2" d="M54.68,77.46c-.78,0-2.44-1-5.87-3.3-.71-.47-1.32-.88-1.71-1.12a.73.73,0,0,1,.76-1.24c.41.26,1,.67,1.76,1.16,1.44,1,4.45,3,5.09,3.05a4.52,4.52,0,0,0,2.68-1.37,1.6,1.6,0,0,0,.38-1.4.73.73,0,0,1,.57-.85.72.72,0,0,1,.85.57,3.06,3.06,0,0,1-.67,2.6A5.92,5.92,0,0,1,54.68,77.46Z"/><path class="cls-2" d="M69,64.77h-.2c-3.28-.15-6.22-3.82-6.35-4a.73.73,0,0,1,.12-1,.72.72,0,0,1,1,.12s2.66,3.31,5.28,3.43a2.53,2.53,0,0,0,2.5-1.62,2.79,2.79,0,0,0-.44-3.09c-.3-.3-2.43-2.2-4.68-4.21-3.44-3.07-7.35-6.55-8.25-7.45a.72.72,0,0,1,1-1c.88.88,4.94,4.49,8.19,7.4,2.74,2.44,4.43,3.95,4.75,4.27a4.17,4.17,0,0,1,.74,4.7A4,4,0,0,1,69,64.77Z"/><path class="cls-2" d="M64.59,69.17a4.2,4.2,0,0,1-1.54-.29A16.14,16.14,0,0,1,58,65.64a.74.74,0,0,1,0-1,.73.73,0,0,1,1,0,14.87,14.87,0,0,0,4.58,2.91,2.9,2.9,0,0,0,3.26-.89,2.09,2.09,0,0,0,.41-2.39.72.72,0,0,1,1.25-.73,3.5,3.5,0,0,1-.56,4.06A4.41,4.41,0,0,1,64.59,69.17Z"/><path class="cls-2" d="M59.65,74.11a3.28,3.28,0,0,1-1.5-.36A22.74,22.74,0,0,1,53,70.22a.72.72,0,0,1,1-1,21.79,21.79,0,0,0,4.83,3.28c1.16.58,2.57-.2,3.39-1.18.62-.73,1.12-1.86.54-2.64a.73.73,0,1,1,1.16-.87c.9,1.2.67,3-.59,4.44A5.06,5.06,0,0,1,59.65,74.11Z"/><path class="cls-2" d="M30.76,64.63A3.74,3.74,0,0,1,28.62,64a4.45,4.45,0,0,1-.73-6.21c1.47-2.14,4.19-2.83,6.06-1.54a3.84,3.84,0,0,1,1.63,2.85,5,5,0,0,1-.89,3.36A4.87,4.87,0,0,1,30.76,64.63Zm1-7.6a3.42,3.42,0,0,0-2.73,1.56,3,3,0,0,0,.36,4.19,3,3,0,0,0,4.05-1.16,3.63,3.63,0,0,0,.65-2.39,2.43,2.43,0,0,0-1-1.8A2.3,2.3,0,0,0,31.81,57Z"/><path class="cls-2" d="M35.49,69.76a3.61,3.61,0,0,1-2.07-.63,3.77,3.77,0,0,1-1.6-2.93,5.68,5.68,0,0,1,3.9-5.68A3.84,3.84,0,0,1,39,61a3.77,3.77,0,0,1,1.6,2.93,5.52,5.52,0,0,1-1,3.5h0a5.5,5.5,0,0,1-2.91,2.18A4.54,4.54,0,0,1,35.49,69.76Zm1.46-8a2.94,2.94,0,0,0-.81.12,4.28,4.28,0,0,0-2.88,4.18,2.42,2.42,0,0,0,1,1.85,2.38,2.38,0,0,0,2.07.25,4.07,4.07,0,0,0,2.13-1.61h0A4.08,4.08,0,0,0,39.19,64a2.4,2.4,0,0,0-1-1.84A2.18,2.18,0,0,0,37,61.79Z"/><path class="cls-2" d="M41.24,73a3.61,3.61,0,0,1-2-.61,3.67,3.67,0,0,1-1.54-2.68,4.71,4.71,0,0,1,.83-3.16,4.19,4.19,0,0,1,5.71-1.43A4.18,4.18,0,0,1,44.92,71,4.54,4.54,0,0,1,41.24,73Zm.94-7a3.1,3.1,0,0,0-2.48,1.42,3.25,3.25,0,0,0-.59,2.18A2.24,2.24,0,0,0,40,71.18a3,3,0,0,0,3.36-4.87A2.1,2.1,0,0,0,42.18,65.94Z"/><path class="cls-2" d="M23.51,56a.68.68,0,0,1-.36-.1l-6.48-3.73a.77.77,0,0,1-.33-.44.7.7,0,0,1,.07-.55L30.12,27.38a.73.73,0,0,1,1-.26l6.47,3.74a.69.69,0,0,1,.34.44.76.76,0,0,1-.07.55L24.14,55.59A.73.73,0,0,1,23.51,56ZM18,51.22l5.22,3,13-22.49-5.22-3Z"/><rect class="cls-3" x="25.63" y="30.29" width="2.83" height="22.39" transform="translate(29.71 90.93) rotate(-150)"/><rect class="cls-3" x="71.46" y="30.99" width="2.83" height="22.39" transform="translate(157.07 42.28) rotate(150)"/><path class="cls-2" d="M76.49,56.65l-.19,0a.72.72,0,0,1-.44-.34L62.15,32.55a.72.72,0,0,1,.27-1l6.47-3.74a.73.73,0,0,1,1,.26L83.59,51.82a.71.71,0,0,1,.07.55.76.76,0,0,1-.33.45l-6.48,3.73A.68.68,0,0,1,76.49,56.65ZM63.77,32.45l13,22.48,5.22-3L69,29.44Z"/><path class="cls-2" d="M40.89,50.88a3.39,3.39,0,0,1-2.37-1,4,4,0,0,1-.68-4.76l0-.07c3.41-5.24,11.93-10.73,15.47-11.4,2.82-.54,6.23.12,9,.66.79.15,1.54.3,2.15.38a.74.74,0,0,1,.62.83.73.73,0,0,1-.82.61c-.65-.09-1.42-.24-2.23-.4-2.62-.51-5.89-1.14-8.43-.66-3.22.62-11.32,5.88-14.5,10.74a2.57,2.57,0,0,0,.41,3,2.12,2.12,0,0,0,2.61.21c.48-.26,1.95-1.29,3.49-2.38,4.49-3.16,6.2-4.3,6.92-4.39l.35,0c1.81-.24,6-.81,8.9.79a.73.73,0,1,1-.71,1.27c-2.43-1.37-6.33-.85-8-.62l-.36,0a64.81,64.81,0,0,0-6.26,4.13c-1.72,1.22-3.08,2.18-3.63,2.47A3.89,3.89,0,0,1,40.89,50.88Z"/><path class="cls-2" d="M73.73,56.54a.79.79,0,0,1-.39-.11.74.74,0,0,1-.22-1,5.73,5.73,0,0,0,.58-3.06.73.73,0,0,1,.73-.73.73.73,0,0,1,.72.73,7.28,7.28,0,0,1-.81,3.85A.73.73,0,0,1,73.73,56.54Z"/><path class="cls-2" d="M47.91,76.06a5.19,5.19,0,0,1-2-.4,5.57,5.57,0,0,1-3.16-3.92.72.72,0,0,1,.5-.9.74.74,0,0,1,.9.51,4.19,4.19,0,0,0,2.32,3,3.83,3.83,0,0,0,3.11-.1.72.72,0,0,1,.69,1.27A5.11,5.11,0,0,1,47.91,76.06Z"/></svg>