<svg width="24" height="24" viewBox="0 0 24 24" fill="none" xmlns="http://www.w3.org/2000/svg">
<rect width="24" height="24" rx="11.97" fill="#4F4440"/>
<g clip-path="url(#clip0_1046_4146)">
<path d="M15.2757 10.2917C15.281 10.3662 15.281 10.4407 15.281 10.5152C15.281 12.7876 13.5638 15.4059 10.4253 15.4059C9.45845 15.4059 8.56024 15.1238 7.80469 14.6343C7.94207 14.6502 8.07414 14.6555 8.21681 14.6555C9.01461 14.6555 9.74904 14.3841 10.3355 13.9211C9.58525 13.9052 8.9565 13.4103 8.73987 12.7291C8.84555 12.745 8.95122 12.7557 9.06218 12.7557C9.2154 12.7557 9.36864 12.7344 9.51129 12.6971C8.72932 12.5375 8.14282 11.8457 8.14282 11.0102V10.9889C8.37001 11.1166 8.63421 11.1964 8.91422 11.2071C8.45455 10.8984 8.15339 10.3716 8.15339 9.77552C8.15339 9.45622 8.23792 9.16353 8.38587 8.90809C9.22596 9.95114 10.4887 10.6323 11.9047 10.7068C11.8783 10.5791 11.8625 10.4461 11.8625 10.313C11.8625 9.36575 12.6233 8.59412 13.5691 8.59412C14.0604 8.59412 14.5042 8.80166 14.816 9.13693C15.2017 9.06243 15.5715 8.91874 15.8991 8.72184C15.7723 9.12097 15.5028 9.45624 15.1488 9.66909C15.4923 9.63186 15.8251 9.53605 16.1316 9.40302C15.8991 9.74359 15.6085 10.0469 15.2757 10.2917Z" fill="white"/>
</g>
<defs>
<clipPath id="clip0_1046_4146">
<rect width="8.32693" height="8.387" fill="white" transform="translate(7.80469 7.80652)"/>
</clipPath>
</defs>
</svg>
