<svg width="24" height="24" viewBox="0 0 24 24" fill="none" xmlns="http://www.w3.org/2000/svg">
<rect width="24" height="24" rx="11.97" fill="#4F4440"/>
<path d="M9.95155 15.6693H8.44066V10.7698H9.95155V15.6693ZM9.19529 10.1015C8.71226 10.1015 8.32031 9.69849 8.32031 9.21198C8.32031 8.72547 8.71226 8.33069 9.19529 8.33069C9.67832 8.33069 10.0703 8.72547 10.0703 9.21198C10.0703 9.69849 9.67832 10.1015 9.19529 10.1015ZM15.6064 15.6693H14.0987V13.2843C14.0987 12.7158 14.0874 11.9869 13.3132 11.9869C12.5277 11.9869 12.4073 12.6045 12.4073 13.2433V15.6693H10.8981V10.7698H12.3472V11.4381H12.3683C12.57 11.0532 13.0628 10.6469 13.7979 10.6469C15.3266 10.6469 15.608 11.6609 15.608 12.9779V15.6693H15.6064Z" fill="white"/>
</svg>
