<svg width="24" height="24" viewBox="0 0 24 24" fill="none" xmlns="http://www.w3.org/2000/svg">
<rect width="24" height="24" rx="11.97" fill="#4F4440"/>
<path d="M7.6 16C7.2975 16 7.03863 15.9022 6.8234 15.7065C6.60817 15.5108 6.50037 15.2753 6.5 15V9C6.5 8.725 6.6078 8.48967 6.8234 8.294C7.039 8.09833 7.29787 8.00033 7.6 8H16.4C16.7025 8 16.9615 8.098 17.1771 8.294C17.3927 8.49 17.5004 8.72533 17.5 9V15C17.5 15.275 17.3924 15.5105 17.1771 15.7065C16.9619 15.9025 16.7029 16.0003 16.4 16H7.6ZM12 12.5L16.4 10V9L12 11.5L7.6 9V10L12 12.5Z" fill="#EDECEC"/>
</svg>
