<svg width="24" height="24" viewBox="0 0 24 24" fill="none" xmlns="http://www.w3.org/2000/svg">
<rect width="24" height="24" rx="11.97" fill="#4F4440"/>
<path d="M11.1999 13.7753C10.8955 15.2896 10.5249 16.7417 9.42514 17.5C9.08643 15.2113 9.92386 13.492 10.3125 11.6672C9.64953 10.6061 10.3925 8.47022 11.7906 8.99628C13.5112 9.64401 10.3005 12.9415 12.456 13.3537C14.7066 13.7837 15.6259 9.64123 14.2301 8.29357C12.2136 6.34873 8.3603 8.24968 8.83436 11.0344C8.94987 11.7155 9.68924 11.9221 9.12975 12.8621C7.83931 12.5893 7.45428 11.6216 7.50421 10.3312C7.58363 8.22024 9.49973 6.74148 11.4213 6.53705C13.8517 6.27819 16.1324 7.38531 16.4471 9.55901C16.802 12.0121 15.3503 14.6697 12.752 14.478C12.0475 14.4264 11.7515 14.0947 11.1999 13.7753Z" fill="#EDECEC"/>
</svg>
