<svg id="Layer_1" data-name="Layer 1" xmlns="http://www.w3.org/2000/svg" viewBox="0 0 100 100"><defs><style>.cls-1{fill:#67be61;}.cls-2{fill:#c1e1bc;}.cls-3{fill:#fff;}</style></defs><circle class="cls-1" cx="49.93" cy="50" r="50"/><path class="cls-2" d="M50.14,23A27.14,27.14,0,1,1,23,50.14,27.16,27.16,0,0,1,50.14,23m0-3.92A31.06,31.06,0,1,0,81.2,50.14a31,31,0,0,0-31.06-31Z"/><rect class="cls-3" x="19.09" y="49.22" width="8.72" height="1.57"/><rect class="cls-3" x="72.48" y="49.22" width="8.72" height="1.57"/><rect class="cls-3" x="49.18" y="19.09" width="1.57" height="8.72"/><rect class="cls-3" x="49.18" y="72.48" width="1.57" height="8.72"/><path class="cls-3" d="M50,82.43A32.43,32.43,0,1,1,82.43,50,32.47,32.47,0,0,1,50,82.43Zm0-63.29A30.86,30.86,0,1,0,80.86,50,30.89,30.89,0,0,0,50,19.14Z"/><polygon class="cls-3" points="60.9 57.12 49.18 50.37 49.18 31.58 50.74 31.58 50.74 49.46 61.68 55.76 60.9 57.12"/></svg>