<svg id="Layer_1" data-name="Layer 1" xmlns="http://www.w3.org/2000/svg" viewBox="0 0 100 100"><defs><style>.cls-1{fill:#504440;}.cls-2{fill:#fee140;}.cls-3{fill:#fff;}</style></defs><circle class="cls-1" cx="49.93" cy="50" r="50"/><path class="cls-2" d="M68.54,48.33a7,7,0,0,0-3.28-2.49h.07a5.33,5.33,0,0,0,.73-3.53,5.49,5.49,0,0,0-1.57-3.13,6.28,6.28,0,0,0-3.17-1.74,6,6,0,0,0-3.78.29,6.89,6.89,0,0,0-2.4-4.48,7.85,7.85,0,0,0-9.77,0,6.64,6.64,0,0,0-2.5,4.49,6,6,0,0,0-3.78-.29,6.28,6.28,0,0,0-3.17,1.74,5.55,5.55,0,0,0-1.57,3.13,5.06,5.06,0,0,0,.81,3.53,6.92,6.92,0,0,0-3.29,2.49A6.18,6.18,0,0,0,30.65,52a6.41,6.41,0,0,0,2.14,4.84,7.37,7.37,0,0,0,5.19,2H62.43a7.41,7.41,0,0,0,5.2-2A6.41,6.41,0,0,0,69.77,52,6.17,6.17,0,0,0,68.54,48.33Z"/><path class="cls-3" d="M76.2,47.24a9.88,9.88,0,0,0-4.61-3.75,8.06,8.06,0,0,0,1.12-5.31,8.51,8.51,0,0,0-2.19-4.72,8.78,8.78,0,0,0-4.45-2.62,8,8,0,0,0-5.31.53,10.34,10.34,0,0,0-20.58,0,8,8,0,0,0-5.3-.53,8.73,8.73,0,0,0-4.45,2.62,8.59,8.59,0,0,0-2.2,4.72,8,8,0,0,0,1.13,5.31,9.83,9.83,0,0,0-4.61,3.75,10.26,10.26,0,0,0,8.57,16h16.2V81.26a1,1,0,0,0,1,.95.85.85,0,0,0,.85-.86V63.21H67.62A10.24,10.24,0,0,0,77.91,52.92,10.09,10.09,0,0,0,76.2,47.24ZM73.7,59a8.37,8.37,0,0,1-6.08,2.5H51.33V56.7l6.61-6.61a.86.86,0,0,0-1.21-1.21l-5.4,5.4V36.53a.86.86,0,0,0-.86-.86,1,1,0,0,0-.95.86V47.32L44.22,42A.85.85,0,0,0,43,42a.86.86,0,0,0,0,1.21l6.61,6.61V61.5H33.32a8.52,8.52,0,0,1-8.57-8.58,8.23,8.23,0,0,1,1.43-4.73A8.13,8.13,0,0,1,30,45.07l1.82-.75-1-1.7a6.45,6.45,0,0,1-.9-4.2,6.81,6.81,0,0,1,1.76-3.8,7,7,0,0,1,3.59-2.12,6.42,6.42,0,0,1,4.21.44l2.15,1,.25-2.34A8.39,8.39,0,0,1,44.71,26a8.54,8.54,0,0,1,11.53,0,8.39,8.39,0,0,1,2.82,5.56l.25,2.34,2.15-1a6.39,6.39,0,0,1,4.2-.44,7,7,0,0,1,3.59,2.12A6.86,6.86,0,0,1,71,38.42a6.35,6.35,0,0,1-.91,4.2l-1,1.7,1.83.75a8.18,8.18,0,0,1,3.83,3.12A8.6,8.6,0,0,1,73.7,59Z"/><path class="cls-3" d="M50.48,82.42a1.19,1.19,0,0,1-1.17-1.16V63.42h-16a10.46,10.46,0,0,1-10.5-10.5,10.32,10.32,0,0,1,1.75-5.8,10.18,10.18,0,0,1,4.49-3.73,8.24,8.24,0,0,1-1-5.24,8.93,8.93,0,0,1,6.81-7.51,8.07,8.07,0,0,1,5.18.43,10.55,10.55,0,0,1,20.93,0,8.25,8.25,0,0,1,5.15-.45,9,9,0,0,1,4.58,2.69,8.85,8.85,0,0,1,2.25,4.83,8.29,8.29,0,0,1-1,5.24,10.21,10.21,0,0,1,4.48,3.73h0a10.37,10.37,0,0,1,1.75,5.8,10.45,10.45,0,0,1-10.5,10.5H51.54V81.35A1.07,1.07,0,0,1,50.48,82.42ZM36.67,30.82a6,6,0,0,0-1.73.22,8.4,8.4,0,0,0-4.36,2.57,8.24,8.24,0,0,0-2.14,4.6,7.87,7.87,0,0,0,1.09,5.17l.13.21-.23.09a9.7,9.7,0,0,0-4.51,3.67,9.88,9.88,0,0,0-1.68,5.57A10,10,0,0,0,33.32,63H49.73V81.26a.76.76,0,0,0,.75.74.64.64,0,0,0,.64-.65V63h16.5A10,10,0,0,0,77.71,52.92,10,10,0,0,0,76,47.35h0a9.78,9.78,0,0,0-4.52-3.67l-.22-.09.12-.21a7.82,7.82,0,0,0,1.1-5.17,8.18,8.18,0,0,0-2.15-4.6A8.38,8.38,0,0,0,66,31a8.08,8.08,0,0,0-5.17.52l-.26.12,0-.28a10,10,0,0,0-3.31-6.52A10.14,10.14,0,0,0,40.39,31.4l0,.28-.26-.12A8.53,8.53,0,0,0,36.67,30.82Zm31,30.88H51.12V56.62L57.79,50a.68.68,0,0,0,.19-.46.64.64,0,0,0-.19-.46.66.66,0,0,0-.92,0l-5.75,5.75V36.53a.65.65,0,0,0-.65-.65.84.84,0,0,0-.74.65v11.3l-5.65-5.66a.66.66,0,0,0-.92,0,.6.6,0,0,0-.19.45.6.6,0,0,0,.19.46l6.67,6.67v12H33.32A8.78,8.78,0,0,1,26,48.07a8.41,8.41,0,0,1,3.93-3.19l1.61-.66-.88-1.5a6.67,6.67,0,0,1-.94-4.33,7,7,0,0,1,1.82-3.91,7.2,7.2,0,0,1,3.69-2.18,6.58,6.58,0,0,1,4.34.45l1.89.84.22-2.06a8.58,8.58,0,0,1,2.89-5.69,8.84,8.84,0,0,1,14.69,5.69l.22,2.06,1.89-.84a6.65,6.65,0,0,1,4.34-.45,7.19,7.19,0,0,1,3.7,2.18,7.06,7.06,0,0,1,1.81,3.91,6.53,6.53,0,0,1-.93,4.33l-.88,1.5,1.61.66a8.39,8.39,0,0,1,3.92,3.19,8.79,8.79,0,0,1-1.09,11.07h0A8.61,8.61,0,0,1,67.62,61.7Zm-16.08-.41H67.62A8.33,8.33,0,0,0,76,52.92,8.24,8.24,0,0,0,74.6,48.3a8,8,0,0,0-3.74-3l-2-.84,1.12-1.92a6.12,6.12,0,0,0,.88-4.06,6.56,6.56,0,0,0-1.71-3.68,6.69,6.69,0,0,0-3.49-2.06,6,6,0,0,0-4.07.42L59.13,34.2l-.28-2.62A8.46,8.46,0,0,0,50.47,24a8.06,8.06,0,0,0-5.62,2.18,8.24,8.24,0,0,0-2.76,5.42l-.28,2.63L39.4,33.13a6.11,6.11,0,0,0-4.07-.43,6.83,6.83,0,0,0-3.49,2.06,6.73,6.73,0,0,0-1.71,3.69A6.23,6.23,0,0,0,31,42.52l1.11,1.91-2.05.84a8,8,0,0,0-3.73,3,8.35,8.35,0,0,0,7,13H49.41V49.93l-6.55-6.55a1.07,1.07,0,0,1,0-1.51,1.1,1.1,0,0,1,1.51,0l4.94,5V36.53a1.22,1.22,0,0,1,1.16-1.06,1.06,1.06,0,0,1,1.07,1.06V53.78l5-5a1,1,0,0,1,.75-.32h0a1.09,1.09,0,0,1,1.07,1.07,1,1,0,0,1-.32.75l-6.54,6.55Z"/></svg>