<svg id="Layer_1" data-name="Layer 1" xmlns="http://www.w3.org/2000/svg" viewBox="0 0 100 100"><defs><style>.cls-1{fill:#504440;}.cls-2,.cls-3{fill:#fff;}.cls-3{isolation:isolate;}.cls-4{fill:#fee140;}</style></defs><circle class="cls-1" cx="49.93" cy="50" r="50"/><path class="cls-2" d="M83,69.16H78.74l-.1-.66a11.26,11.26,0,0,0-22.28,0l-.1.66H47.83l-.09-.66a11.26,11.26,0,0,0-22.29,0l-.09.66h-2.5a5.93,5.93,0,0,1-5.92-5.92V28.9A5.92,5.92,0,0,1,22.86,23H57.2a5.92,5.92,0,0,1,5.92,5.91v4.39h4.67a7.79,7.79,0,0,1,5.38,2.21l8.32,8.32a7.55,7.55,0,0,1,2.23,5.4V60.83A4.2,4.2,0,0,1,83,69.16Zm-2.9-1.53H83a2.67,2.67,0,1,0,0-5.34h-.76V49.22a6.06,6.06,0,0,0-1.78-4.32l-8.3-8.3a6.23,6.23,0,0,0-4.32-1.78H61.58V28.9a4.39,4.39,0,0,0-4.38-4.38H22.86a4.39,4.39,0,0,0-4.39,4.38V63.24a4.4,4.4,0,0,0,4.39,4.39h1.19a12.79,12.79,0,0,1,25.09,0H55a12.8,12.8,0,0,1,25.1,0ZM76.85,52H61.58V40.16h6.53l8.74,8.74ZM63.12,50.46h12.2v-.92l-7.85-7.85H63.12Z"/><path class="cls-3" d="M67.5,79.46a9.35,9.35,0,1,1,9.35-9.35A9.36,9.36,0,0,1,67.5,79.46Zm0-17.17a7.82,7.82,0,1,0,7.82,7.82A7.83,7.83,0,0,0,67.5,62.29ZM36.59,79.46A9.35,9.35,0,1,1,46,70.11,9.36,9.36,0,0,1,36.59,79.46Zm0-17.17a7.82,7.82,0,1,0,7.82,7.82A7.82,7.82,0,0,0,36.59,62.29Z"/><path class="cls-4" d="M30.44,70.11a6.19,6.19,0,1,1,6.18,6.18A6.18,6.18,0,0,1,30.44,70.11Zm30.85,0a6.18,6.18,0,1,1,6.18,6.18A6.18,6.18,0,0,1,61.29,70.11Z"/></svg>