<svg xmlns="http://www.w3.org/2000/svg" xmlns:xlink="http://www.w3.org/1999/xlink" width="40" zoomAndPan="magnify" viewBox="0 0 30 30.000001" height="40" preserveAspectRatio="xMidYMid meet" version="1.0"><defs><clipPath id="dba9361829"><path d="M 0.484375 0 L 29.515625 0 L 29.515625 29.03125 L 0.484375 29.03125 Z M 0.484375 0 " clip-rule="nonzero"/></clipPath><clipPath id="68382d36c9"><path d="M 12 9.445312 L 18 9.445312 L 18 19.589844 L 12 19.589844 Z M 12 9.445312 " clip-rule="nonzero"/></clipPath><clipPath id="cbe16dbdc5"><path d="M 9.554688 9.074219 L 20.445312 9.074219 L 20.445312 19.960938 L 9.554688 19.960938 Z M 9.554688 9.074219 " clip-rule="nonzero"/></clipPath></defs><g clip-path="url(#dba9361829)"><path fill="#ffffff" d="M 0.484375 0 L 29.515625 0 L 29.515625 29.03125 L 0.484375 29.03125 Z M 0.484375 0 " fill-opacity="1" fill-rule="nonzero"/><path fill="#ffffff" d="M 0.484375 0 L 29.515625 0 L 29.515625 29.03125 L 0.484375 29.03125 Z M 0.484375 0 " fill-opacity="1" fill-rule="nonzero"/><path fill="#4f4440" d="M 14.964844 0 L 15.035156 0 C 15.988281 0 16.929688 0.09375 17.859375 0.277344 C 18.792969 0.464844 19.699219 0.738281 20.578125 1.101562 C 21.457031 1.464844 22.289062 1.910156 23.082031 2.441406 C 23.871094 2.96875 24.601562 3.570312 25.273438 4.242188 C 25.949219 4.914062 26.546875 5.644531 27.074219 6.433594 C 27.605469 7.226562 28.050781 8.058594 28.414062 8.9375 C 28.777344 9.816406 29.050781 10.722656 29.238281 11.65625 C 29.421875 12.585938 29.515625 13.527344 29.515625 14.480469 L 29.515625 14.550781 C 29.515625 15.503906 29.421875 16.445312 29.238281 17.378906 C 29.050781 18.308594 28.777344 19.214844 28.414062 20.09375 C 28.050781 20.972656 27.605469 21.804688 27.074219 22.597656 C 26.546875 23.386719 25.949219 24.117188 25.273438 24.792969 C 24.601562 25.464844 23.871094 26.0625 23.082031 26.59375 C 22.289062 27.121094 21.457031 27.566406 20.578125 27.929688 C 19.699219 28.292969 18.792969 28.570312 17.859375 28.753906 C 16.929688 28.941406 15.988281 29.03125 15.035156 29.03125 L 14.964844 29.03125 C 14.011719 29.03125 13.070312 28.941406 12.140625 28.753906 C 11.207031 28.570312 10.300781 28.292969 9.421875 27.929688 C 8.542969 27.566406 7.710938 27.121094 6.917969 26.59375 C 6.128906 26.0625 5.398438 25.464844 4.726562 24.792969 C 4.050781 24.117188 3.453125 23.386719 2.925781 22.597656 C 2.394531 21.804688 1.949219 20.972656 1.585938 20.09375 C 1.222656 19.214844 0.949219 18.308594 0.761719 17.378906 C 0.578125 16.445312 0.484375 15.503906 0.484375 14.550781 L 0.484375 14.480469 C 0.484375 13.527344 0.578125 12.585938 0.761719 11.65625 C 0.949219 10.722656 1.222656 9.816406 1.585938 8.9375 C 1.949219 8.058594 2.394531 7.226562 2.925781 6.433594 C 3.453125 5.644531 4.050781 4.914062 4.726562 4.242188 C 5.398438 3.570312 6.128906 2.96875 6.917969 2.441406 C 7.710938 1.910156 8.542969 1.464844 9.421875 1.101562 C 10.300781 0.738281 11.207031 0.464844 12.140625 0.277344 C 13.070312 0.09375 14.011719 0 14.964844 0 Z M 14.964844 0 " fill-opacity="1" fill-rule="nonzero"/></g><g clip-path="url(#68382d36c9)"><path fill="#4f4440" d="M 13.871094 19.589844 L 13.871094 15.050781 L 12.363281 15.050781 L 12.363281 13.246094 L 13.871094 13.246094 L 13.871094 11.828125 C 13.871094 10.285156 14.808594 9.445312 16.175781 9.445312 C 16.832031 9.445312 17.394531 9.492188 17.558594 9.515625 L 17.558594 11.128906 L 16.609375 11.128906 C 15.863281 11.128906 15.722656 11.484375 15.722656 12.003906 L 15.722656 13.246094 L 17.398438 13.246094 L 17.167969 15.050781 L 15.722656 15.050781 L 15.722656 19.589844 " fill-opacity="1" fill-rule="nonzero"/></g><g clip-path="url(#cbe16dbdc5)"><path fill="#fffefe" d="M 15 12.882812 C 14.785156 12.882812 14.574219 12.925781 14.375 13.007812 C 14.175781 13.089844 14 13.207031 13.84375 13.363281 C 13.691406 13.515625 13.574219 13.691406 13.492188 13.890625 C 13.410156 14.089844 13.367188 14.300781 13.367188 14.515625 C 13.367188 14.734375 13.410156 14.941406 13.492188 15.140625 C 13.574219 15.339844 13.691406 15.519531 13.84375 15.671875 C 14 15.824219 14.175781 15.941406 14.375 16.023438 C 14.574219 16.109375 14.785156 16.148438 15 16.148438 C 15.214844 16.148438 15.425781 16.109375 15.625 16.023438 C 15.824219 15.941406 16 15.824219 16.15625 15.671875 C 16.308594 15.519531 16.425781 15.339844 16.507812 15.140625 C 16.589844 14.941406 16.632812 14.734375 16.632812 14.515625 C 16.632812 14.300781 16.589844 14.089844 16.507812 13.890625 C 16.425781 13.691406 16.308594 13.515625 16.15625 13.363281 C 16 13.207031 15.824219 13.089844 15.625 13.007812 C 15.425781 12.925781 15.214844 12.882812 15 12.882812 Z M 15 11.792969 C 15.359375 11.792969 15.707031 11.863281 16.042969 12 C 16.375 12.140625 16.667969 12.335938 16.925781 12.589844 C 17.179688 12.847656 17.375 13.140625 17.515625 13.472656 C 17.652344 13.808594 17.722656 14.15625 17.722656 14.515625 C 17.722656 14.878906 17.652344 15.222656 17.515625 15.558594 C 17.375 15.890625 17.179688 16.183594 16.925781 16.441406 C 16.667969 16.695312 16.375 16.894531 16.042969 17.03125 C 15.707031 17.167969 15.359375 17.238281 15 17.238281 C 14.640625 17.238281 14.292969 17.167969 13.957031 17.03125 C 13.625 16.894531 13.332031 16.695312 13.074219 16.441406 C 12.820312 16.183594 12.625 15.890625 12.484375 15.558594 C 12.347656 15.222656 12.277344 14.878906 12.277344 14.515625 C 12.277344 14.15625 12.347656 13.808594 12.484375 13.472656 C 12.625 13.140625 12.820312 12.847656 13.074219 12.589844 C 13.332031 12.335938 13.625 12.140625 13.957031 12 C 14.292969 11.863281 14.640625 11.792969 15 11.792969 Z M 18.539062 11.660156 C 18.539062 11.847656 18.472656 12.007812 18.339844 12.140625 C 18.207031 12.273438 18.046875 12.339844 17.859375 12.339844 C 17.671875 12.339844 17.507812 12.273438 17.375 12.140625 C 17.242188 12.007812 17.175781 11.847656 17.175781 11.660156 C 17.175781 11.46875 17.242188 11.308594 17.375 11.175781 C 17.507812 11.042969 17.671875 10.976562 17.859375 10.976562 C 18.046875 10.976562 18.207031 11.042969 18.339844 11.175781 C 18.472656 11.308594 18.539062 11.46875 18.539062 11.660156 Z M 15 10.160156 C 13.652344 10.160156 13.433594 10.164062 12.808594 10.191406 C 12.378906 10.214844 12.09375 10.269531 11.828125 10.375 C 11.601562 10.457031 11.40625 10.585938 11.238281 10.757812 C 11.066406 10.921875 10.941406 11.121094 10.855469 11.34375 C 10.753906 11.613281 10.695312 11.898438 10.675781 12.324219 C 10.648438 12.925781 10.644531 13.132812 10.644531 14.515625 C 10.644531 15.863281 10.648438 16.082031 10.675781 16.710938 C 10.695312 17.136719 10.753906 17.421875 10.855469 17.6875 C 11.035156 18.15625 11.359375 18.476562 11.828125 18.65625 C 12.097656 18.761719 12.382812 18.820312 12.808594 18.839844 C 13.40625 18.867188 13.617188 18.871094 15 18.871094 C 16.347656 18.871094 16.566406 18.867188 17.191406 18.839844 C 17.617188 18.820312 17.90625 18.761719 18.171875 18.660156 C 18.394531 18.574219 18.59375 18.449219 18.757812 18.277344 C 18.933594 18.109375 19.058594 17.914062 19.140625 17.6875 C 19.246094 17.421875 19.304688 17.132812 19.324219 16.710938 C 19.351562 16.109375 19.355469 15.898438 19.355469 14.515625 C 19.355469 13.167969 19.351562 12.949219 19.324219 12.324219 C 19.304688 11.898438 19.246094 11.609375 19.140625 11.34375 C 19.058594 11.121094 18.929688 10.921875 18.757812 10.757812 C 18.59375 10.582031 18.394531 10.457031 18.171875 10.371094 C 17.90625 10.269531 17.617188 10.210938 17.191406 10.191406 C 16.59375 10.164062 16.382812 10.160156 15 10.160156 Z M 15 9.074219 C 16.480469 9.074219 16.664062 9.078125 17.242188 9.105469 C 17.824219 9.132812 18.21875 9.222656 18.566406 9.359375 C 18.933594 9.496094 19.253906 9.707031 19.53125 9.988281 C 19.808594 10.261719 20.019531 10.582031 20.15625 10.953125 C 20.292969 11.296875 20.382812 11.695312 20.410156 12.273438 C 20.441406 12.851562 20.445312 13.039062 20.445312 14.515625 C 20.445312 15.996094 20.4375 16.179688 20.410156 16.761719 C 20.382812 17.339844 20.292969 17.734375 20.15625 18.082031 C 19.859375 18.847656 19.332031 19.378906 18.566406 19.675781 C 18.21875 19.808594 17.824219 19.898438 17.242188 19.929688 C 16.664062 19.957031 16.480469 19.960938 15 19.960938 C 13.519531 19.960938 13.335938 19.953125 12.757812 19.925781 C 12.175781 19.898438 11.78125 19.808594 11.433594 19.671875 C 11.066406 19.535156 10.746094 19.324219 10.46875 19.046875 C 10.191406 18.769531 9.980469 18.449219 9.84375 18.082031 C 9.707031 17.734375 9.617188 17.339844 9.589844 16.761719 C 9.5625 16.179688 9.554688 15.996094 9.554688 14.515625 C 9.554688 13.039062 9.5625 12.851562 9.589844 12.273438 C 9.617188 11.691406 9.707031 11.296875 9.84375 10.949219 C 9.980469 10.582031 10.191406 10.261719 10.46875 9.984375 C 10.746094 9.707031 11.066406 9.496094 11.433594 9.359375 C 11.78125 9.222656 12.175781 9.132812 12.757812 9.105469 C 13.335938 9.078125 13.519531 9.074219 15 9.074219 Z M 15 9.074219 " fill-opacity="1" fill-rule="nonzero"/></g></svg>